<?xml version="1.0" encoding="UTF-8" standalone="no"?>
<svg
   xmlns:dc="http://purl.org/dc/elements/1.1/"
   xmlns:cc="http://creativecommons.org/ns#"
   xmlns:rdf="http://www.w3.org/1999/02/22-rdf-syntax-ns#"
   xmlns:svg="http://www.w3.org/2000/svg"
   xmlns="http://www.w3.org/2000/svg"
   xmlns:sodipodi="http://sodipodi.sourceforge.net/DTD/sodipodi-0.dtd"
   xmlns:inkscape="http://www.inkscape.org/namespaces/inkscape"
   inkscape:version="1.0beta1 (fe3e306, 2019-09-17)"
   sodipodi:docname="1_1graph.svg"
   viewBox="0 0 344.3783 141.73883"
   height="141.73883"
   width="344.3783"
   xml:space="preserve"
   id="svg174"
   version="1.1">
  <metadata
     id="metadata180">
    <rdf:RDF>
      <cc:Work
         rdf:about="">
        <dc:format>image/svg+xml</dc:format>
        <dc:type
           rdf:resource="http://purl.org/dc/dcmitype/StillImage" />
        <dc:title></dc:title>
      </cc:Work>
    </rdf:RDF>
  </metadata>
  <defs
     id="defs178" />
  <sodipodi:namedview
     inkscape:current-layer="g182"
     inkscape:window-maximized="0"
     inkscape:window-y="23"
     inkscape:window-x="26"
     inkscape:cy="70.869415"
     inkscape:cx="172.18915"
     inkscape:zoom="1.623215"
     showgrid="false"
     id="namedview176"
     inkscape:window-height="480"
     inkscape:window-width="780"
     inkscape:pageshadow="2"
     inkscape:pageopacity="0"
     guidetolerance="10"
     gridtolerance="10"
     objecttolerance="10"
     borderopacity="1"
     inkscape:document-rotation="0"
     bordercolor="#666666"
     pagecolor="#ffffff" />
  <g
     transform="matrix(1.3333333,0,0,1.3333333,0,2.8768041e-6)"
     inkscape:label="1_1graph"
     inkscape:groupmode="layer"
     id="g182">
    <g
       id="g184">
      <g
         id="g186">
        <path
           inkscape:connector-curvature="0"
           id="path188"
           style="fill:none;stroke:#000000;stroke-width:0.749999;stroke-linecap:butt;stroke-linejoin:miter;stroke-miterlimit:4;stroke-dasharray:none;stroke-opacity:1"
           d="m 70.289,0 c 2.113,3.867 4.949,7.277 7.594,10.781 8.59,11.399 16.887,21.344 30.293,27.188 3.512,1.531 7.406,2.265 11.101,3.222 5.207,1.344 10.278,2.914 15.625,3.68 6.926,0.996 14.028,1.133 20.989,1.84 4.066,0.414 8.144,0.727 12.207,1.152 4.199,0.438 8.336,1.383 12.574,1.532 5.269,0.187 12.273,-0.153 16.738,-0.563" />
      </g>
      <g
         id="g190">
        <path
           inkscape:connector-curvature="0"
           id="path192"
           style="fill:none;stroke:#000000;stroke-width:0.749999;stroke-linecap:butt;stroke-linejoin:miter;stroke-miterlimit:4;stroke-dasharray:none;stroke-opacity:1"
           d="m 67.508,106.305 c 2.433,-0.25 4.941,-0.121 7.308,-0.746 0.188,-0.047 6.465,-7.969 7.684,-9.239 6.777,-7.066 14.34,-13.847 22.902,-18.675 5.758,-3.243 12.309,-4.321 18.418,-6.633 11.106,-4.203 22.543,-7.985 34.301,-9.934 5.457,-0.902 10.961,-0.953 16.434,-1.609 4.316,-0.516 8.781,-1.586 13.125,-1.762 3.273,-0.137 6.871,0.152 10.004,0.152" />
      </g>
      <g
         id="g194">
        <path
           inkscape:connector-curvature="0"
           id="path196"
           style="fill:none;stroke:#00af00;stroke-width:0.749999;stroke-linecap:butt;stroke-linejoin:miter;stroke-miterlimit:4;stroke-dasharray:none;stroke-opacity:1"
           d="m 70.289,0 c -0.41,1.488 -0.945,2.949 -1.23,4.469 -0.2,1.062 1.371,5.195 1.691,6.363 1.727,6.305 3.938,12.449 5.492,18.813 2.125,8.703 3.871,17.636 6.946,26.074 1.406,3.851 3.14,10.281 6.742,12.672 0.457,0.304 1.402,0.363 1.902,0.453 4.164,0.738 5.043,0.617 9.043,-0.383 1.355,-0.34 2.832,-0.434 4.117,-0.996 1.539,-0.676 2.672,-2.098 4.227,-2.84 3.683,-1.75 7.504,-3.254 11.469,-4.215 9.175,-2.23 18.48,-1.953 27.765,-3.332 0.981,-0.144 1.988,-0.055 2.981,-0.191 2.859,-0.395 5.652,-1.071 8.527,-1.383 5.258,-0.57 10.742,-0.383 16.027,-0.383 2.914,0 5.95,0.293 8.824,0.77 0.649,0.105 1.563,0.558 1.782,-0.157" />
      </g>
      <text
         id="text200"
         style="font-variant:normal;font-weight:normal;font-size:13px;font-family:'DejaVu Sans';-inkscape-font-specification:DejaVuSans;writing-mode:lr-tb;fill:#000000;fill-opacity:1;fill-rule:nonzero;stroke:none"
         transform="translate(9.073997,15.18084)"><tspan
           id="tspan198"
           sodipodi:role="line"
           y="0"
           x="0 9.5029974 16.002996 24.244995 32.187992">U_pot</tspan></text>
      <text
         id="text210"
         style="font-variant:normal;font-weight:normal;font-size:12px;font-family:'DejaVu Sans';-inkscape-font-specification:DejaVuSans;writing-mode:lr-tb;fill:#000000;fill-opacity:1;fill-rule:nonzero;stroke:none"
         transform="translate(-0.585937,75.254893)"><tspan
           id="tspan202"
           sodipodi:role="line"
           y="0"
           x="0 4.3199964 13.09199 19.091984 26.699978 30.023975 37.619968 45.227962 52.823956 60.455948">-U_bindung</tspan><tspan
           id="tspan204"
           sodipodi:role="line"
           y="-63.658794"
           x="147.91267 155.71268 163.09267 170.70067 178.29666 181.62065 187.86064 191.18465 198.27664 205.65663 209.46063 221.31662">Repulsive WW</tspan><tspan
           id="tspan206"
           sodipodi:role="line"
           y="-23.86228"
           x="242.38725 247.31926 253.31924 256.64325">r_ij</tspan><tspan
           id="tspan208"
           sodipodi:role="line"
           y="13.249909"
           x="104.80466 112.14865 116.85265 121.55665 126.48864 133.86864 140.81664 145.52063 148.84462 155.93661 163.3166 167.12061 178.97659">attraktive WW</tspan></text>
      <g
         id="g212">
        <path
           inkscape:connector-curvature="0"
           id="path214"
           style="fill:none;stroke:#000000;stroke-width:0.749999;stroke-linecap:butt;stroke-linejoin:miter;stroke-miterlimit:4;stroke-dasharray:0.749999, 2.25;stroke-dashoffset:0;stroke-opacity:1"
           d="M 67.781,70.707 93.77,69.918" />
      </g>
      <g
         id="g216">
        <path
           inkscape:connector-curvature="0"
           id="path218"
           style="fill:none;stroke:#000000;stroke-width:0.751181;stroke-linecap:butt;stroke-linejoin:miter;stroke-miterlimit:4;stroke-dasharray:0.751181, 3.00472;stroke-dashoffset:0;stroke-opacity:1"
           d="M 94.195,57.211 93.77,69.918" />
      </g>
      <text
         id="text222"
         style="font-variant:normal;font-weight:normal;font-size:12px;font-family:'DejaVu Sans';-inkscape-font-specification:DejaVuSans;writing-mode:lr-tb;fill:#000000;fill-opacity:1;fill-rule:nonzero;stroke:none"
         transform="translate(87.056176,53.05293)"><tspan
           id="tspan220"
           sodipodi:role="line"
           y="0"
           x="0 4.9319959 10.931991">r_0</tspan></text>
      <g
         id="g224">
        <path
           inkscape:connector-curvature="0"
           id="path226"
           style="fill:none;stroke:#000000;stroke-width:0.749999;stroke-linecap:butt;stroke-linejoin:miter;stroke-miterlimit:4;stroke-dasharray:none;stroke-opacity:1"
           d="M 60.809,13.586 66.828,9.668" />
      </g>
      <g
         id="g228">
        <path
           inkscape:connector-curvature="0"
           id="path230"
           style="fill:none;stroke:#000000;stroke-width:0.749999;stroke-linecap:butt;stroke-linejoin:miter;stroke-miterlimit:4;stroke-dasharray:none;stroke-opacity:1"
           d="M 72.473,15.203 66.828,9.668" />
      </g>
      <g
         id="g232">
        <path
           inkscape:connector-curvature="0"
           id="path234"
           style="fill:none;stroke:#000000;stroke-width:0.749999;stroke-linecap:butt;stroke-linejoin:miter;stroke-miterlimit:4;stroke-dasharray:none;stroke-opacity:1"
           d="m 66.828,9.668 0.68,96.637" />
      </g>
      <g
         id="g236">
        <path
           inkscape:connector-curvature="0"
           id="path238"
           style="fill:none;stroke:#000000;stroke-width:0.749999;stroke-linecap:butt;stroke-linejoin:miter;stroke-miterlimit:4;stroke-dasharray:none;stroke-opacity:1"
           d="M 64.848,55.539 210.289,53.434" />
      </g>
    </g>
  </g>
</svg>
