<?xml version="1.0" encoding="UTF-8" standalone="no"?>
<svg
   xmlns:dc="http://purl.org/dc/elements/1.1/"
   xmlns:cc="http://creativecommons.org/ns#"
   xmlns:rdf="http://www.w3.org/1999/02/22-rdf-syntax-ns#"
   xmlns:svg="http://www.w3.org/2000/svg"
   xmlns="http://www.w3.org/2000/svg"
   xmlns:sodipodi="http://sodipodi.sourceforge.net/DTD/sodipodi-0.dtd"
   xmlns:inkscape="http://www.inkscape.org/namespaces/inkscape"
   inkscape:version="1.0beta1 (fe3e306, 2019-09-17)"
   sodipodi:docname="1_1silizium.svg"
   viewBox="0 0 137.82951 133.20982"
   height="133.20982"
   width="137.82951"
   xml:space="preserve"
   id="svg46"
   version="1.1">
  <metadata
     id="metadata52">
    <rdf:RDF>
      <cc:Work
         rdf:about="">
        <dc:format>image/svg+xml</dc:format>
        <dc:type
           rdf:resource="http://purl.org/dc/dcmitype/StillImage" />
        <dc:title></dc:title>
      </cc:Work>
    </rdf:RDF>
  </metadata>
  <defs
     id="defs50" />
  <sodipodi:namedview
     inkscape:current-layer="svg46"
     inkscape:window-maximized="0"
     inkscape:window-y="23"
     inkscape:window-x="26"
     inkscape:cy="28.002686"
     inkscape:cx="9.1038439"
     inkscape:zoom="2.1543731"
     showgrid="false"
     id="namedview48"
     inkscape:window-height="992"
     inkscape:window-width="1759"
     inkscape:pageshadow="2"
     inkscape:pageopacity="0"
     guidetolerance="10"
     gridtolerance="10"
     objecttolerance="10"
     borderopacity="1"
     inkscape:document-rotation="0"
     bordercolor="#666666"
     pagecolor="#ffffff" />
  <g
     transform="matrix(1.3333333,0,0,1.3333333,0,4.6635788e-6)"
     inkscape:label="1_1silizium"
     inkscape:groupmode="layer"
     id="g54">
    <g
       id="g56">
      <path
         inkscape:connector-curvature="0"
         id="path58"
         style="fill:#c83737;fill-opacity:0.186181;fill-rule:nonzero;stroke:none"
         d="m 37.434,18.906 c 0,10.239 -8.297,18.535 -18.532,18.535 -10.234,0 -18.535,-8.296 -18.535,-18.535 0,-10.234 8.301,-18.531 18.535,-18.531 10.235,0 18.532,8.297 18.532,18.531 z" />
      <g
         id="g60">
        <path
           inkscape:connector-curvature="0"
           id="path62"
           style="fill:none;stroke:#00af00;stroke-width:0.749999;stroke-linecap:butt;stroke-linejoin:miter;stroke-miterlimit:4;stroke-dasharray:0.749999, 2.25;stroke-dashoffset:0;stroke-opacity:1"
           d="m 37.434,18.906 c 0,10.239 -8.297,18.535 -18.532,18.535 -10.234,0 -18.535,-8.296 -18.535,-18.535 0,-10.234 8.301,-18.531 18.535,-18.531 10.235,0 18.532,8.297 18.532,18.531 z" />
      </g>
      <text
         id="text66"
         style="font-variant:normal;font-weight:normal;font-size:10px;font-family:'DejaVu Sans';-inkscape-font-specification:DejaVuSans;writing-mode:lr-tb;fill:#947f00;fill-opacity:0.728924;fill-rule:nonzero;stroke:none"
         transform="translate(14.213854,22.477715)"><tspan
           id="tspan64"
           y="0"
           x="0">S</tspan></text>
      <text
         id="text70"
         style="font-variant:normal;font-weight:normal;font-size:10px;font-family:'DejaVu Sans';-inkscape-font-specification:DejaVuSans;writing-mode:lr-tb;fill:#947f00;fill-opacity:0.728924;fill-rule:nonzero;stroke:none"
         transform="translate(20.561515,22.477715)"><tspan
           id="tspan68"
           y="0"
           x="0">I</tspan></text>
      <path
         inkscape:connector-curvature="0"
         id="path72"
         style="fill:#94ec00;fill-opacity:0.728924;fill-rule:nonzero;stroke:none"
         d="m 76.062,20.867 c 0,3.598 -10,6.512 -22.332,6.512 -12.332,0 -22.332,-2.914 -22.332,-6.512 0,-3.597 10,-6.515 22.332,-6.515 12.332,0 22.332,2.918 22.332,6.515 z" />
      <g
         id="g74">
        <path
           inkscape:connector-curvature="0"
           id="path76"
           style="fill:none;stroke:#00af00;stroke-width:0.749999;stroke-linecap:butt;stroke-linejoin:miter;stroke-miterlimit:4;stroke-dasharray:0.749999, 2.25;stroke-dashoffset:0;stroke-opacity:1"
           d="m 76.062,20.867 c 0,3.598 -10,6.512 -22.332,6.512 -12.332,0 -22.332,-2.914 -22.332,-6.512 0,-3.597 10,-6.515 22.332,-6.515 12.332,0 22.332,2.918 22.332,6.515 z" />
      </g>
      <path
         inkscape:connector-curvature="0"
         id="path78"
         style="fill:#c83737;fill-opacity:0.186181;fill-rule:nonzero;stroke:none"
         d="m 38.828,79.613 c 0,10.235 -8.297,18.535 -18.531,18.535 -10.238,0 -18.535,-8.3 -18.535,-18.535 0,-10.234 8.297,-18.531 18.535,-18.531 10.234,0 18.531,8.297 18.531,18.531" />
      <g
         id="g80">
        <path
           inkscape:connector-curvature="0"
           id="path82"
           style="fill:none;stroke:#00af00;stroke-width:0.749999;stroke-linecap:butt;stroke-linejoin:miter;stroke-miterlimit:4;stroke-dasharray:0.749999, 2.25;stroke-dashoffset:0;stroke-opacity:1"
           d="m 38.828,79.613 c 0,10.235 -8.297,18.535 -18.531,18.535 -10.238,0 -18.535,-8.3 -18.535,-18.535 0,-10.234 8.297,-18.531 18.535,-18.531 10.234,0 18.531,8.297 18.531,18.531" />
      </g>
      <text
         id="text86"
         style="font-variant:normal;font-weight:normal;font-size:9.99998px;font-family:'DejaVu Sans';-inkscape-font-specification:DejaVuSans;writing-mode:lr-tb;fill:#947f00;fill-opacity:0.728924;fill-rule:nonzero;stroke:none"
         transform="translate(15.607604,83.183103)"><tspan
           id="tspan84"
           y="0"
           x="0">S</tspan></text>
      <text
         id="text90"
         style="font-variant:normal;font-weight:normal;font-size:9.99998px;font-family:'DejaVu Sans';-inkscape-font-specification:DejaVuSans;writing-mode:lr-tb;fill:#947f00;fill-opacity:0.728924;fill-rule:nonzero;stroke:none"
         transform="translate(21.955246,83.183103)"><tspan
           id="tspan88"
           y="0"
           x="0">I</tspan></text>
      <path
         inkscape:connector-curvature="0"
         id="path92"
         style="fill:#94ec00;fill-opacity:0.728924;fill-rule:nonzero;stroke:none"
         d="m 77.457,81.57 c 0,3.598 -10,6.516 -22.332,6.516 -12.336,0 -22.332,-2.918 -22.332,-6.516 0,-3.597 9.996,-6.511 22.332,-6.511 12.332,0 22.332,2.914 22.332,6.511" />
      <g
         id="g94">
        <path
           inkscape:connector-curvature="0"
           id="path96"
           style="fill:none;stroke:#00af00;stroke-width:0.749999;stroke-linecap:butt;stroke-linejoin:miter;stroke-miterlimit:4;stroke-dasharray:0.749999, 2.25;stroke-dashoffset:0;stroke-opacity:1"
           d="m 77.457,81.57 c 0,3.598 -10,6.516 -22.332,6.516 -12.336,0 -22.332,-2.918 -22.332,-6.516 0,-3.597 9.996,-6.511 22.332,-6.511 12.332,0 22.332,2.914 22.332,6.511" />
      </g>
      <path
         inkscape:connector-curvature="0"
         id="path98"
         style="fill:#c83737;fill-opacity:0.186181;fill-rule:nonzero;stroke:none"
         d="m 102.363,21.5 c 0,10.234 -8.297,18.535 -18.535,18.535 -10.234,0 -18.531,-8.301 -18.531,-18.535 0,-10.234 8.297,-18.531 18.531,-18.531 10.238,0 18.535,8.297 18.535,18.531" />
      <g
         id="g100">
        <path
           inkscape:connector-curvature="0"
           id="path102"
           style="fill:none;stroke:#00af00;stroke-width:0.749999;stroke-linecap:butt;stroke-linejoin:miter;stroke-miterlimit:4;stroke-dasharray:0.749999, 2.25;stroke-dashoffset:0;stroke-opacity:1"
           d="m 102.363,21.5 c 0,10.234 -8.297,18.535 -18.535,18.535 -10.234,0 -18.531,-8.301 -18.531,-18.535 0,-10.234 8.297,-18.531 18.531,-18.531 10.238,0 18.535,8.297 18.535,18.531" />
      </g>
      <text
         id="text106"
         style="font-variant:normal;font-weight:normal;font-size:9.99998px;font-family:'DejaVu Sans';-inkscape-font-specification:DejaVuSans;writing-mode:lr-tb;fill:#947f00;fill-opacity:0.728924;fill-rule:nonzero;stroke:none"
         transform="translate(79.141475,25.070358)"><tspan
           id="tspan104"
           y="0"
           x="0">S</tspan></text>
      <text
         id="text110"
         style="font-variant:normal;font-weight:normal;font-size:9.99998px;font-family:'DejaVu Sans';-inkscape-font-specification:DejaVuSans;writing-mode:lr-tb;fill:#947f00;fill-opacity:0.728924;fill-rule:nonzero;stroke:none"
         transform="translate(85.489117,25.070358)"><tspan
           id="tspan108"
           y="0"
           x="0">I</tspan></text>
      <path
         inkscape:connector-curvature="0"
         id="path112"
         style="fill:#94ec00;fill-opacity:0.728924;fill-rule:nonzero;stroke:none"
         d="m 85.188,73.645 c -3.598,0 -6.512,-9.997 -6.512,-22.329 0,-12.336 2.914,-22.332 6.512,-22.332 3.597,0 6.515,9.996 6.515,22.332 0,12.332 -2.918,22.329 -6.515,22.329" />
      <g
         transform="rotate(90)"
         id="g114">
        <path
           inkscape:connector-curvature="0"
           id="path116"
           style="fill:none;stroke:#00af00;stroke-width:0.749999;stroke-linecap:butt;stroke-linejoin:miter;stroke-miterlimit:4;stroke-dasharray:0.749999, 2.25;stroke-dashoffset:0;stroke-opacity:1"
           d="m 73.645,-85.188 c 0,3.598 -9.997,6.512 -22.329,6.512 -12.336,0 -22.332,-2.914 -22.332,-6.512 0,-3.597 9.996,-6.515 22.332,-6.515 12.332,0 22.329,2.918 22.329,6.515" />
      </g>
      <path
         inkscape:connector-curvature="0"
         id="path118"
         style="fill:#c83737;fill-opacity:0.186181;fill-rule:nonzero;stroke:none"
         d="m 102.996,81.02 c 0,10.238 -8.297,18.535 -18.531,18.535 -10.235,0 -18.535,-8.297 -18.535,-18.535 0,-10.235 8.3,-18.532 18.535,-18.532 10.234,0 18.531,8.297 18.531,18.532" />
      <g
         id="g120">
        <path
           inkscape:connector-curvature="0"
           id="path122"
           style="fill:none;stroke:#00af00;stroke-width:0.749999;stroke-linecap:butt;stroke-linejoin:miter;stroke-miterlimit:4;stroke-dasharray:0.749999, 2.25;stroke-dashoffset:0;stroke-opacity:1"
           d="m 102.996,81.02 c 0,10.238 -8.297,18.535 -18.531,18.535 -10.235,0 -18.535,-8.297 -18.535,-18.535 0,-10.235 8.3,-18.532 18.535,-18.532 10.234,0 18.531,8.297 18.531,18.532" />
      </g>
      <text
         id="text126"
         style="font-variant:normal;font-weight:normal;font-size:9.99998px;font-family:'DejaVu Sans';-inkscape-font-specification:DejaVuSans;writing-mode:lr-tb;fill:#947f00;fill-opacity:0.728924;fill-rule:nonzero;stroke:none"
         transform="translate(79.776303,84.590651)"><tspan
           id="tspan124"
           y="0"
           x="0">S</tspan></text>
      <text
         id="text130"
         style="font-variant:normal;font-weight:normal;font-size:9.99998px;font-family:'DejaVu Sans';-inkscape-font-specification:DejaVuSans;writing-mode:lr-tb;fill:#947f00;fill-opacity:0.728924;fill-rule:nonzero;stroke:none"
         transform="translate(86.123945,84.590651)"><tspan
           id="tspan128"
           y="0"
           x="0">I</tspan></text>
      <path
         inkscape:connector-curvature="0"
         id="path132"
         style="fill:#94ec00;fill-opacity:0.728924;fill-rule:nonzero;stroke:none"
         d="m 18.895,71.172 c -3.594,0 -6.512,-9.996 -6.512,-22.328 0,-12.336 2.918,-22.332 6.512,-22.332 3.597,0 6.515,9.996 6.515,22.332 0,12.332 -2.918,22.328 -6.515,22.328" />
      <g
         transform="rotate(90)"
         id="g134">
        <path
           inkscape:connector-curvature="0"
           id="path136"
           style="fill:none;stroke:#00af00;stroke-width:0.749999;stroke-linecap:butt;stroke-linejoin:miter;stroke-miterlimit:4;stroke-dasharray:0.749999, 2.25;stroke-dashoffset:0;stroke-opacity:1"
           d="m 71.172,-18.895 c 0,3.594 -9.996,6.512 -22.328,6.512 -12.336,0 -22.332,-2.918 -22.332,-6.512 0,-3.597 9.996,-6.515 22.332,-6.515 12.332,0 22.328,2.918 22.328,6.515" />
      </g>
    </g>
  </g>
</svg>
