<?xml version="1.0" encoding="UTF-8" standalone="no"?>
<svg
   xmlns:dc="http://purl.org/dc/elements/1.1/"
   xmlns:cc="http://creativecommons.org/ns#"
   xmlns:rdf="http://www.w3.org/1999/02/22-rdf-syntax-ns#"
   xmlns:svg="http://www.w3.org/2000/svg"
   xmlns="http://www.w3.org/2000/svg"
   xmlns:sodipodi="http://sodipodi.sourceforge.net/DTD/sodipodi-0.dtd"
   xmlns:inkscape="http://www.inkscape.org/namespaces/inkscape"
   sodipodi:docname="1_2graph.svg"
   inkscape:version="1.0beta1 (fe3e306, 2019-09-17)"
   id="svg8"
   version="1.1"
   viewBox="0 0 80.099368 74.781922"
   height="74.781921mm"
   width="80.099365mm">
  <defs
     id="defs2" />
  <sodipodi:namedview
     inkscape:window-maximized="1"
     inkscape:window-y="0"
     inkscape:window-x="0"
     inkscape:window-height="1536"
     inkscape:window-width="2560"
     showgrid="false"
     inkscape:document-rotation="0"
     inkscape:current-layer="layer1"
     inkscape:document-units="mm"
     inkscape:cy="150.52828"
     inkscape:cx="29.483511"
     inkscape:zoom="1.2827595"
     inkscape:pageshadow="2"
     inkscape:pageopacity="0.0"
     borderopacity="1.0"
     bordercolor="#666666"
     pagecolor="#ffffff"
     id="base" />
  <metadata
     id="metadata5">
    <rdf:RDF>
      <cc:Work
         rdf:about="">
        <dc:format>image/svg+xml</dc:format>
        <dc:type
           rdf:resource="http://purl.org/dc/dcmitype/StillImage" />
        <dc:title></dc:title>
      </cc:Work>
    </rdf:RDF>
  </metadata>
  <g
     transform="translate(-45.4914,-30.914575)"
     id="layer1"
     inkscape:groupmode="layer"
     inkscape:label="Layer 1">
    <path
       inkscape:connector-curvature="0"
       id="path10"
       d="M 56.853124,38.237183 V 94.740705"
       style="fill:none;stroke:#000000;stroke-width:0.264583px;stroke-linecap:butt;stroke-linejoin:miter;stroke-opacity:1" />
    <path
       inkscape:connector-curvature="0"
       id="path12"
       d="M 55.417423,66.873505 H 122.26995"
       style="fill:none;stroke:#000000;stroke-width:0.264583px;stroke-linecap:butt;stroke-linejoin:miter;stroke-opacity:1" />
    <path
       inkscape:connector-curvature="0"
       id="path18"
       d="m 60.260851,105.67086 c 0.317206,-1.60593 0.762196,-3.17946 1.442926,-4.67111 0.499581,-1.094709 1.184453,-2.072096 1.840135,-3.075356 1.023996,-1.566812 2.053283,-3.128666 3.115358,-4.670086 0.958582,-1.391217 1.886767,-2.827901 2.968167,-4.128511 1.271257,-1.528953 2.71916,-2.924387 4.086198,-4.367501 2.029675,-2.142622 4.276307,-4.505454 6.691009,-6.227638 2.51288,-1.792205 5.382701,-3.030178 8.261119,-4.103891 2.450664,-0.914154 4.956786,-1.769875 7.520297,-2.304786 1.420871,-0.296484 2.855942,-0.60856 4.29621,-0.793649 2.5186,-0.323662 5.06659,-0.449715 7.60005,-0.589275 0.70333,-0.03874 1.40405,-0.1286 2.10836,-0.151034 3.17145,-0.101024 6.57941,0.07804 9.64635,-0.40798"
       style="fill:none;stroke:#000000;stroke-width:0.264583px;stroke-linecap:butt;stroke-linejoin:miter;stroke-opacity:1" />
    <path
       inkscape:connector-curvature="0"
       id="path20"
       d="m 59.544642,30.938433 c 0.580859,3.168052 1.982126,6.117838 3.167158,9.095544 1.051052,2.641039 2.214258,5.250145 4.23826,7.299766 2.6973,2.731442 6.161241,4.625346 9.541473,6.36252 2.251535,1.157113 4.499814,2.270776 6.904611,3.08305 1.49442,0.504772 3.025916,0.950544 4.557004,1.330097 1.002763,0.248582 2.022626,0.421577 3.028428,0.657228 1.664925,0.390078 3.320802,0.833289 4.999086,1.163931 2.128789,0.419396 4.308578,0.672857 6.469708,0.846217 1.0847,0.08701 2.17396,0.0026 3.26024,0.04539 1.53936,0.06065 3.06359,0.1968 4.60777,0.166167 0.94333,-0.01871 1.88383,-0.126799 2.8256,-0.181295 0.64471,-0.03731 1.29868,-0.01778 1.94168,-0.07565 0.42255,-0.03802 0.40295,-0.08622 0.46388,-0.08847"
       style="fill:none;stroke:#000000;stroke-width:0.264583px;stroke-linecap:butt;stroke-linejoin:miter;stroke-opacity:1" />
    <path
       inkscape:connector-curvature="0"
       id="path24"
       d="m 58.256601,32.049286 c -0.234469,2.04969 0.148679,4.087394 0.469265,6.103268 0.08774,0.551741 0.150547,1.340284 0.282585,1.866548 0.04332,0.172662 0.120896,0.318574 0.159242,0.498242 0.100642,0.471559 0.07653,0.968629 0.188476,1.435748 0.105273,0.439256 0.302464,0.814692 0.353359,1.281631 0.06866,0.629957 0.02352,1.26455 0.04334,1.896552 0.02209,0.704538 0.124709,1.404091 0.152062,2.108359 0.03845,0.989957 -0.05443,1.966613 -0.07231,2.954578 -0.02625,1.450591 -0.05454,2.901577 -0.04359,4.352629 0.01836,2.43578 0.355573,4.876826 0.782367,7.269509 0.09793,0.549013 0.156107,1.11007 0.275405,1.654738 0.245856,1.1225 0.622102,2.24086 0.956479,3.339989 0.324263,1.065874 0.697016,2.201061 1.217269,3.188951 1.311219,2.489822 3.635563,4.498819 6.469708,4.896774 2.480484,0.348292 4.674812,-0.432618 6.969487,-1.269582 2.196971,-0.801325 4.313809,-1.70157 6.310466,-2.932012 1.745559,-1.075701 3.274192,-2.433984 5.237821,-3.097919 0.677312,-0.22901 1.402316,-0.463217 2.108105,-0.589531 1.074698,-0.192337 2.210096,-0.135909 3.296653,-0.135909 1.00435,0 2.01051,-0.04635 3.013813,-0.03026 0.752155,0.01207 1.501243,0.07591 2.253242,0.09821 1.018717,0.03021 2.032395,-0.04389 3.050225,-0.06052 0.6105,-0.01 1.22286,0.0205 1.83296,-0.0074 0.66068,-0.03027 1.32551,-0.128471 1.98655,-0.128471"
       style="fill:none;stroke:#00a200;stroke-width:0.264583px;stroke-linecap:butt;stroke-linejoin:miter;stroke-opacity:1" />
    <path
       sodipodi:nodetypes="cc"
       inkscape:connector-curvature="0"
       id="path867"
       d="m 70.618127,66.83236 0.291714,7.9252"
       style="fill:none;stroke:#000000;stroke-width:0.265;stroke-linecap:butt;stroke-linejoin:miter;stroke-miterlimit:4;stroke-dasharray:0.265, 1.06;stroke-dashoffset:0;stroke-opacity:1" />
    <path
       inkscape:connector-curvature="0"
       id="path869"
       d="m 57.070103,74.768074 13.839738,-0.0105"
       style="fill:none;stroke:#000000;stroke-width:0.265;stroke-linecap:butt;stroke-linejoin:miter;stroke-miterlimit:4;stroke-dasharray:0.265, 0.795;stroke-dashoffset:0;stroke-opacity:1" />
    <text
       id="text873"
       y="75.52993"
       x="45.353596"
       style="font-size:2.82223px;line-height:1.25;font-family:sans-serif;stroke-width:0.264583"
       xml:space="preserve"><tspan
         style="stroke-width:0.264583"
         y="75.52993"
         x="45.353596"
         id="tspan871"
         sodipodi:role="line">-epsilon</tspan></text>
    <text
       id="text877"
       y="66.664917"
       x="124.43045"
       style="font-size:2.82223px;line-height:1.25;font-family:sans-serif;stroke-width:0.264583"
       xml:space="preserve"><tspan
         style="stroke-width:0.264583"
         y="66.664917"
         x="124.43045"
         id="tspan875"
         sodipodi:role="line">r</tspan></text>
    <text
       id="text881"
       y="63.75367"
       x="69.972336"
       style="font-size:2.82223px;line-height:1.25;font-family:sans-serif;stroke-width:0.264583"
       xml:space="preserve"><tspan
         style="stroke-width:0.264583"
         y="63.75367"
         x="69.972336"
         id="tspan879"
         sodipodi:role="line">r_0</tspan></text>
    <text
       id="text885"
       y="34.79718"
       x="49.615452"
       style="font-size:2.82223px;line-height:1.25;font-family:sans-serif;stroke-width:0.264583"
       xml:space="preserve"><tspan
         style="stroke-width:0.264583"
         y="34.79718"
         x="49.615452"
         id="tspan883"
         sodipodi:role="line">U_pot</tspan></text>
    <text
       id="text889"
       y="49.574425"
       x="80.389252"
       style="font-size:2.82223px;line-height:1.25;font-family:sans-serif;stroke-width:0.264583"
       xml:space="preserve"><tspan
         style="stroke-width:0.264583"
         y="49.574425"
         x="80.389252"
         id="tspan887"
         sodipodi:role="line">r^-12</tspan></text>
    <text
       id="text893"
       y="85.498093"
       x="82.204773"
       style="font-size:2.82223px;line-height:1.25;font-family:sans-serif;stroke-width:0.264583"
       xml:space="preserve"><tspan
         style="stroke-width:0.264583"
         y="85.498093"
         x="82.204773"
         id="tspan891"
         sodipodi:role="line">-r^-6</tspan></text>
  </g>
</svg>
